PathFileType	4	(X/Y/Z)	RBDS022\RBDS022runT25.trc
DataRate	CameraRate	NumFrames	NumMarkers	Units	OrigDataRate	OrigDataStartFrame	OrigNumFrames
150.000000	150.000000	4	33	mm	150.000000	1687	4500
Frame#	Time	L.ASIS			L.Heel.Bottom			L.Heel.Lateral			L.Heel.Top			L.Iliac.Crest			L.MT1			L.MT5			L.PSIS			L.Shank.Bottom.Lateral			L.Shank.Bottom.Medial			L.Shank.Top.Lateral			L.Shank.Top.Medial			L.Thigh.Bottom.Lateral			L.Thigh.Bottom.Medial			L.Thigh.Top.Lateral			L.Thigh.Top.Medial			R.ASIS			R.ASY			R.Heel.Bottom			R.Heel.Lateral			R.Heel.Top			R.Iliac.Crest			R.MT1			R.MT5			R.PSIS			R.Shank.Bottom.Lateral			R.Shank.Bottom.Medial			R.Shank.Top.Lateral			R.Shank.Top.Medial			R.Thigh.Bottom.Lateral			R.Thigh.Bottom.Medial			R.Thigh.Top.Lateral			R.Thigh.Top.Medial			
		X1	Y1	Z1	X2	Y2	Z2	X3	Y3	Z3	X4	Y4	Z4	X5	Y5	Z5	X6	Y6	Z6	X7	Y7	Z7	X8	Y8	Z8	X9	Y9	Z9	X10	Y10	Z10	X11	Y11	Z11	X12	Y12	Z12	X13	Y13	Z13	X14	Y14	Z14	X15	Y15	Z15	X16	Y16	Z16	X17	Y17	Z17	X18	Y18	Z18	X19	Y19	Z19	X20	Y20	Z20	X21	Y21	Z21	X22	Y22	Z22	X23	Y23	Z23	X24	Y24	Z24	X25	Y25	Z25	X26	Y26	Z26	X27	Y27	Z27	X28	Y28	Z28	X29	Y29	Z29	X30	Y30	Z30	X31	Y31	Z31	X32	Y32	Z32	X33	Y33	Z33	

1688	11.24666666666667	2273.733980707404	950.6912414380084	880.3880421961089	1896.139587359674	60.46960002004283	973.9890509662708	1928.34201253642	79.83033191052553	928.6195884348194	1912.514589956194	103.7562613035551	977.1574900413531	2199.672948907654	1027.754436396904	836.4754728644342	2113.607631133852	39.88480183204106	1003.287727368746	2074.338633092612	40.6012327363133	890.7658481775492	2107.68921921644	986.5509082370658	961.4189741079749	2017.683014417	182.0393101304478	907.529303084237	1980.311903647116	208.1703576105046	939.7593035585762	2047.743618023294	253.4076675160964	885.4126121859672	2012.674769288944	279.3278806337739	917.5377992755716	2199.949995029244	580.5832192258277	849.6579008328032	2133.697293307448	585.5604917896776	879.3696290286783	2194.783679203716	686.4978117013815	822.7459177575724	2133.22768885491	692.018518558537	855.0645257169529	2276.190635704709	942.9146711307817	1116.629580026405	2153.787408083808	151.0370833052122	1075.233797130245	1981.255579153169	235.1816879769451	1049.29744428678	2012.938208396462	232.2452989025342	1097.491489770235	2016.170970422602	262.0573143737032	1049.986489166217	2217.917058168551	1006.807091303018	1162.304284765813	2144.331560173779	99.52367488512715	1030.286465201984	2116.964546697337	116.0225299803371	1139.839341551117	2112.829156414379	980.7938639148498	1046.568032962088	2120.204188211421	299.074973044737	1118.236494913	2102.750727773536	329.4050260906441	1080.680447136322	2181.768820183697	355.7396802426202	1133.264727947541	2157.824464534925	386.5262390371245	1096.891078522052	2357.062288699181	593.9033614364655	1160.001982743958	2300.31576347974	567.6706487001029	1125.712705287718	2304.353310418689	689.6568730142266	1176.471478713711	2247.486061804245	661.9219003258171	1149.955696936238	
1689	11.25333333333333	2275.090082221227	953.6297833365286	881.2545465617973	1881.269854009675	67.23104734071468	974.0777740817606	1913.967112215269	85.35581701024932	928.5806518497028	1898.739197072493	110.0355795570539	976.9597682137669	2202.706892108552	1031.335475756436	836.5909608815018	2097.274868388473	39.89901703125062	1003.246743483612	2058.305442078294	41.35458862139047	890.8342144423927	2108.789587090241	990.7640644808955	960.9752632368547	2004.168776492572	186.7141236018518	907.5364795548859	1966.993970268074	212.9358806378451	939.9623411854951	2034.509724334308	257.9510110080581	885.522362683463	1999.604735192517	283.9677384802561	917.7265748399949	2191.727979549154	584.4411820578324	850.2657969495102	2125.636085369536	591.45245977478	879.9088828707659	2189.897211376306	690.4999528048603	823.4519421810519	2128.381898796677	697.8442622970218	855.5123735920575	2276.052814556584	947.6156921428319	1117.364752760351	2175.893874866445	144.959100773614	1075.415365418868	1998.935209966341	219.3654104012391	1048.140772716648	2030.245520792277	218.0056390678105	1096.67873709714	2032.270837615516	248.2123150746906	1049.370399369433	2217.213162544327	1011.931092141618	1162.692447955663	2169.697662895652	93.34142309121272	1030.088994176263	2140.365417198797	107.5810878317723	1139.393613733187	2113.068571188192	985.2846389575085	1046.400083421668	2133.61166985764	291.1067348363239	1117.993839631361	2114.842272884717	320.4366316771881	1080.245424880364	2191.858474095286	351.0568855673761	1133.455526776875	2166.576920635733	380.5006164322036	1096.86040392268	2358.944655900989	600.1947056696288	1160.621482823629	2302.539697239306	573.4550449916145	1126.162886308085	2305.165160780327	695.3958854653119	1177.178076419787	2248.770636460715	667.2228653747397	1150.269589004628	
1690	11.26	2276.552614704085	956.63666464134	882.1487631339247	1866.889598878562	74.68971614260654	974.1746604099295	1900.106650504746	91.41912297215514	928.5295742703896	1885.583770243014	116.9240709844146	976.7458759534596	2205.778690470594	1035.090898828646	836.8601149226554	2081.14482410906	39.94730948655074	1003.129953039912	2042.498802567467	42.23060459645978	890.8493051725694	2110.022077399647	995.0662552386085	960.5919717306024	1991.178019259108	191.8053364688527	907.4920394289278	1954.243311629471	218.0841375935075	940.1779999189328	2021.792516821433	262.9268349528693	885.6214731254572	1987.065429991347	289.0117605720004	917.9391474696237	2183.83726499287	588.6166786484267	850.8722334930751	2118.027130983979	597.6189848462674	880.6029530355977	2185.246358587849	694.7270721923098	824.1749392343835	2123.8595428144	703.8505603552286	856.0605594811105	2276.049241380868	952.4475163342754	1118.140249346352	2198.369386721312	139.0781548357158	1075.735870928781	2017.51466286799	203.3465970068513	1046.758724980697	2048.281167192807	203.6142570125545	1095.677959182483	2049.121151531713	234.1199021176569	1048.556016482791	2216.676525439906	1017.340688340435	1163.118394733169	2195.559857043035	87.48722410891094	1030.113752220529	2164.199477984934	99.4530462014243	1139.093528974553	2113.455144864993	989.9208839797295	1046.289605757208	2147.266169050019	282.8991049238827	1117.637712924458	2127.254160853108	311.1087662411467	1079.635214050847	2201.873017694649	346.0519459493858	1133.569772730122	2175.373607364543	374.0124956231549	1096.678621015114	2360.098185679959	606.1348950804584	1161.114913403945	2303.941202192449	579.0681203983925	1126.504050159681	2305.507488883688	700.9190708495328	1177.808234913168	2249.533145251743	672.4955353315522	1150.465163929036	
1691	11.26666666666667	2278.104809095341	959.6756751764067	883.0591615516287	1853.060234226487	82.80836748275863	974.2852585568065	1886.805968330839	98.00058098622915	928.4817761704762	1873.106321289818	124.3730770715578	976.5393740856874	2208.900362827563	1038.999755789149	837.2898002914626	2065.242078155723	40.04107267281952	1002.951781113132	2026.944245600826	43.25982369672115	890.8169198396529	2111.370970170913	999.4013014521355	960.2656904412413	1978.762099335022	197.2590634968454	907.4040436086126	1942.117590990333	223.5672466879714	940.4171614330986	2009.661880176685	268.2778840974182	885.7223454233709	1975.127589428419	294.4074202096493	918.1908824503668	2176.344772988254	593.043079345243	851.4564567202763	2110.934023458504	603.9674347344722	881.4365752843443	2180.858301510545	699.1171738529965	824.8896388558253	2119.694765169274	709.9556081607257	856.7038865293848	2276.165489307187	957.3497566781989	1118.93499276778	2221.136739510796	133.4977875275158	1076.18277382067	2036.990091601312	187.2854120870003	1045.206092722866	2067.052994782125	189.2186982032733	1094.52265348862	2066.729060910919	219.9152320937313	1047.566044595203	2216.284398146461	1022.978303719153	1163.565110636556	2221.826978730266	82.07158246029921	1030.365147766112	2188.414532367789	91.76735331699442	1138.956372547768	2113.976494449465	994.6352344872596	1046.228927566914	2161.177801419654	274.5286789031728	1117.183625429871	2140.014655595276	301.5038298840104	1078.868105556711	2211.844287507442	340.7528636960002	1133.61205436656	2184.261966175554	367.1044032867047	1096.354721978423	2360.522660304233	611.6165843563706	1161.472661912767	2304.514117231637	584.3995097158758	1126.734111348514	2305.388809646172	706.1322565197041	1178.344227720152	2249.769096258498	677.6384043881732	1150.543386057702	
